<svg xmlns="http://www.w3.org/2000/svg" viewBox="0 0 660.02 291.96"><title>pay-per-click-banner-click-return</title><ellipse cx="338.35" cy="282.46" rx="157" ry="9.5" style="fill:#2a2d35;opacity:0.48"/><rect x="215" y="110.96" width="244" height="161" rx="4" ry="4" style="fill:#2a2d35"/><rect x="225" y="133.96" width="224" height="128" style="fill:#efefef"/><rect x="225" y="120.96" width="224" height="32" style="fill:#cdcfd4"/><rect x="225" y="120.96" width="224" height="13" style="fill:#7f8cb6"/><path d="M479,279.86c0,1.38-1.44,4.14-3.65,4.14h-272c-2.2,0-4.35-2.76-4.35-4.14v-5c0-1.39,2.15-.86,4.35-.86h272c2.21,0,3.65-.53,3.65.86Z" transform="translate(-2 -3.04)" style="fill:#dddee1"/><circle cx="249.69" cy="127.29" r="2.33" style="fill:#dddee1"/><circle cx="242.69" cy="127.29" r="2.33" style="fill:#dddee1"/><circle cx="235.69" cy="127.29" r="2.33" style="fill:#dddee1"/><rect x="293" y="139.96" width="131" height="7" style="fill:#f8f8f9"/><rect x="406" y="139.96" width="18" height="7" style="fill:#6f6f71"/><rect x="263" y="161.96" width="86" height="3" style="fill:#35aaff"/><rect x="242" y="175.96" width="49" height="3" style="fill:#c2c3c5"/><rect x="295" y="175.96" width="72" height="3" style="fill:#c2c3c5"/><rect x="242" y="181.96" width="49" height="3" style="fill:#c2c3c5"/><rect x="295" y="181.96" width="33" height="3" style="fill:#c2c3c5"/><rect x="333" y="181.96" width="33" height="3" style="fill:#c2c3c5"/><rect x="242" y="188.96" width="49" height="3" style="fill:#c2c3c5"/><rect x="295" y="188.96" width="33" height="3" style="fill:#c2c3c5"/><rect x="371" y="181.96" width="17" height="3" style="fill:#c2c3c5"/><rect x="263" y="168.96" width="58" height="3" style="fill:#4f9a5b"/><rect x="242" y="218.96" width="86" height="3" style="fill:#35aaff"/><rect x="242" y="232.96" width="49" height="3" style="fill:#c2c3c5"/><rect x="295" y="232.96" width="72" height="3" style="fill:#c2c3c5"/><rect x="242" y="238.96" width="49" height="3" style="fill:#c2c3c5"/><rect x="295" y="238.96" width="33" height="3" style="fill:#c2c3c5"/><rect x="242" y="225.96" width="58" height="3" style="fill:#4f9a5b"/><path d="M260,165v10H245V165h15m0-1H245a1,1,0,0,0-1,1v10a1,1,0,0,0,1,1h15a1,1,0,0,0,1-1V165a1,1,0,0,0-1-1Z" transform="translate(-2 -3.04)" style="fill:#4f9a5b"/><path d="M248.2,171.55l-.7,2.12h-.9l2.29-6.74h1.05l2.3,6.74h-.93l-.72-2.12Zm2.21-.68-.66-1.94c-.15-.44-.25-.84-.35-1.23h0c-.1.4-.21.81-.34,1.22l-.66,2Z" transform="translate(-2 -3.04)" style="fill:#4f9a5b"/><path d="M253.23,167a12.46,12.46,0,0,1,1.85-.14,3.86,3.86,0,0,1,2.73.84,3.1,3.1,0,0,1,.95,2.42,3.56,3.56,0,0,1-1,2.62,4.15,4.15,0,0,1-3,1,14,14,0,0,1-1.58-.08Zm.87,6a5.49,5.49,0,0,0,.88.05,2.59,2.59,0,0,0,2.87-2.86,2.4,2.4,0,0,0-2.73-2.6,4.94,4.94,0,0,0-1,.09Z" transform="translate(-2 -3.04)" style="fill:#4f9a5b"/><path d="M404,213H239V159H404Zm-164-1H403V160H240Z" transform="translate(-2 -3.04)" style="fill:#fb3d4d"/><polygon points="351.15 190.8 333.48 182.64 341.05 200.18 342.7 194.77 349.39 201.98 351.59 199.94 344.5 192.3 351.15 190.8" style="fill:#6f6f71"/><path d="M89.64,158.89a35.54,35.54,0,1,1,35.54-35.54A35.58,35.58,0,0,1,89.64,158.89Zm0-70.08a34.54,34.54,0,1,0,34.54,34.54A34.57,34.57,0,0,0,89.64,88.81Z" transform="translate(-2 -3.04)" style="fill:#29295f"/><polygon points="134 85.96 125 85.96 125 75.96 88 75.96 88 84.96 87 84.96 87 74.96 126 74.96 126 84.96 134 84.96 134 85.96" style="fill:#29295f"/><rect x="87" y="154.96" width="1" height="10" style="fill:#29295f"/><rect x="42" y="119.96" width="10" height="1" style="fill:#29295f"/><rect x="122" y="119.96" width="10" height="1" style="fill:#29295f"/><path d="M158.64,217.89a35.54,35.54,0,1,1,35.54-35.54A35.58,35.58,0,0,1,158.64,217.89Zm0-70.08a34.54,34.54,0,1,0,34.54,34.54A34.57,34.57,0,0,0,158.64,147.81Z" transform="translate(-2 -3.04)" style="fill:#29295f"/><rect x="156" y="133.96" width="1" height="10" style="fill:#29295f"/><rect x="156" y="213.96" width="1" height="10" style="fill:#29295f"/><rect x="111" y="178.96" width="10" height="1" style="fill:#29295f"/><polygon points="214 215.96 200 215.96 200 179.96 191 179.96 191 178.96 201 178.96 201 214.96 214 214.96 214 215.96" style="fill:#29295f"/><path d="M576.64,149.89a35.54,35.54,0,1,1,35.54-35.54A35.58,35.58,0,0,1,576.64,149.89Zm0-70.08a34.54,34.54,0,1,0,34.54,34.54A34.57,34.57,0,0,0,576.64,79.81Z" transform="translate(-2 -3.04)" style="fill:#29295f"/><rect x="574" y="65.96" width="1" height="10" style="fill:#29295f"/><polygon points="572 223.88 572 182.96 565 182.96 565 181.96 573 181.96 573 221.04 624.31 156.96 574 156.96 574 145.96 575 145.96 575 155.96 626.4 155.96 572 223.88" style="fill:#29295f"/><rect x="529" y="110.96" width="10" height="1" style="fill:#29295f"/><rect x="609" y="110.96" width="10" height="1" style="fill:#29295f"/><path d="M522.64,220.89a35.54,35.54,0,1,1,35.54-35.54A35.58,35.58,0,0,1,522.64,220.89Zm0-70.08a34.54,34.54,0,1,0,34.54,34.54A34.57,34.57,0,0,0,522.64,150.81Z" transform="translate(-2 -3.04)" style="fill:#29295f"/><rect x="520" y="136.96" width="1" height="10" style="fill:#29295f"/><rect x="520" y="216.96" width="1" height="10" style="fill:#29295f"/><polygon points="475 221.96 459 221.96 459 220.96 474 220.96 474 181.96 485 181.96 485 182.96 475 182.96 475 221.96" style="fill:#29295f"/><rect x="555" y="181.96" width="10" height="1" style="fill:#29295f"/><path d="M489.64,120.89a35.54,35.54,0,1,1,35.54-35.54A35.58,35.58,0,0,1,489.64,120.89Zm0-70.08a34.54,34.54,0,1,0,34.54,34.54A34.57,34.57,0,0,0,489.64,50.81Z" transform="translate(-2 -3.04)" style="fill:#29295f"/><polygon points="575 65.96 574 65.96 574 61.96 543 61.96 543 37.96 488 37.96 488 46.96 487 46.96 487 36.96 544 36.96 544 60.96 575 60.96 575 65.96" style="fill:#29295f"/><polygon points="521 136.96 520 136.96 520 127.96 487 127.96 487 116.96 488 116.96 488 126.96 521 126.96 521 136.96" style="fill:#29295f"/><rect x="442" y="81.96" width="10" height="1" style="fill:#29295f"/><rect x="522" y="81.96" width="10" height="1" style="fill:#29295f"/><path d="M181.64,123.89a35.54,35.54,0,1,1,35.54-35.54A35.58,35.58,0,0,1,181.64,123.89Zm0-70.08a34.54,34.54,0,1,0,34.54,34.54A34.57,34.57,0,0,0,181.64,53.81Z" transform="translate(-2 -3.04)" style="fill:#29295f"/><rect x="179" y="39.96" width="1" height="10" style="fill:#29295f"/><polygon points="157 133.96 156 133.96 156 129.96 179 129.96 179 119.96 180 119.96 180 130.96 157 130.96 157 133.96" style="fill:#29295f"/><rect x="134" y="84.96" width="10" height="1" style="fill:#29295f"/><rect x="214" y="84.96" width="10" height="1" style="fill:#29295f"/><polygon points="255.84 101.06 254.53 99.54 297.15 63.01 333.11 90.97 368.24 56.22 406 91.33 406 13.96 408 13.96 408 95.93 368.28 58.99 333.3 93.62 297.23 65.59 255.84 101.06" style="fill:#29295f"/><path d="M428.83,26.34A20.44,20.44,0,1,1,408.39,5.9,20.44,20.44,0,0,1,428.83,26.34Z" transform="translate(-2 -3.04)" style="fill:#29295f"/><circle cx="408.39" cy="26.34" r="16.35" transform="translate(-2.6 8.98) rotate(-1.68)" style="fill:#fc6161"/><path d="M408.39,38.6a12.26,12.26,0,1,1,12.26-12.26A12.27,12.27,0,0,1,408.39,38.6Z" transform="translate(-2 -3.04)" style="fill:#29295f"/><path d="M408.39,34.51a8.18,8.18,0,1,1,8.18-8.17A8.19,8.19,0,0,1,408.39,34.51Z" transform="translate(-2 -3.04)" style="fill:#fc6161"/><path d="M408.39,30.42a4.09,4.09,0,1,1,4.09-4.08A4.08,4.08,0,0,1,408.39,30.42Z" transform="translate(-2 -3.04)" style="fill:#29295f"/><polygon points="429.47 0.8 428.66 0 407.58 21.08 406.93 18.62 404.1 25.37 410.84 22.54 408.38 21.88 429.47 0.8" style="fill:#bcbcbc"/><circle cx="297.19" cy="66.63" r="7.33" style="fill:#2f374f"/><path d="M299.19,73a3.33,3.33,0,1,1,3.33-3.33A3.34,3.34,0,0,1,299.19,73Z" transform="translate(-2 -3.04)" style="fill:#fc6161"/><circle cx="332.19" cy="89.63" r="7.33" style="fill:#2f374f"/><path d="M334.19,96a3.33,3.33,0,1,1,3.33-3.33A3.34,3.34,0,0,1,334.19,96Z" transform="translate(-2 -3.04)" style="fill:#fc6161"/><path d="M375.52,61.67a7.34,7.34,0,1,1-7.33-7.33A7.33,7.33,0,0,1,375.52,61.67Z" transform="translate(-2 -3.04)" style="fill:#2f374f"/><path d="M368.19,65a3.33,3.33,0,1,1,3.33-3.33A3.34,3.34,0,0,1,368.19,65Z" transform="translate(-2 -3.04)" style="fill:#fc6161"/><path d="M414.52,93.67a7.34,7.34,0,1,1-7.33-7.33A7.33,7.33,0,0,1,414.52,93.67Z" transform="translate(-2 -3.04)" style="fill:#2f374f"/><path d="M407.19,97a3.33,3.33,0,1,1,3.33-3.33A3.34,3.34,0,0,1,407.19,97Z" transform="translate(-2 -3.04)" style="fill:#fc6161"/><rect x="69" y="106.96" width="36" height="32" style="fill:#f8f8f9"/><rect x="69" y="102.96" width="36" height="4" style="fill:#55575d"/><rect x="72" y="110.96" width="30" height="6" style="fill:#35aaff"/><rect x="72" y="117.96" width="30" height="1" style="fill:#aaabae"/><rect x="72" y="119.96" width="30" height="1" style="fill:#aaabae"/><rect x="72" y="121.96" width="30" height="1" style="fill:#aaabae"/><rect x="83" y="123.96" width="19" height="1" style="fill:#aaabae"/><rect x="83" y="125.96" width="19" height="1" style="fill:#aaabae"/><rect x="83" y="127.96" width="19" height="1" style="fill:#aaabae"/><rect x="83" y="129.96" width="19" height="1" style="fill:#aaabae"/><rect x="83" y="131.96" width="19" height="1" style="fill:#aaabae"/><rect x="72" y="133.96" width="30" height="1" style="fill:#aaabae"/><rect x="72" y="123.96" width="10" height="9" style="fill:#ec8157"/><circle cx="77.48" cy="105.08" r="0.75" style="fill:#999a9e"/><circle cx="75.48" cy="105.08" r="0.75" style="fill:#999a9e"/><circle cx="73.48" cy="105.08" r="0.75" style="fill:#999a9e"/><rect x="157" y="64.96" width="46" height="4" style="fill:#5a5c64"/><rect x="157" y="68.96" width="46" height="27" style="fill:#ff9e33"/><rect x="157" y="95.96" width="46" height="8" style="fill:#5a5c64"/><polygon points="178 84.98 178 79.26 182.95 82.12 178 84.98" style="fill:#5a5c64"/><path d="M181.43,94.38A9.56,9.56,0,1,1,191,84.82,9.57,9.57,0,0,1,181.43,94.38Zm0-18.35a8.8,8.8,0,1,0,8.79,8.79A8.8,8.8,0,0,0,181.43,76Z" transform="translate(-2 -3.04)" style="fill:#5a5c64"/><path d="M163.71,70.17a.89.89,0,1,1-.89-.9A.89.89,0,0,1,163.71,70.17Z" transform="translate(-2 -3.04)" style="fill:#ff8e72"/><path d="M166,70.17a.89.89,0,1,1-.89-.9A.89.89,0,0,1,166,70.17Z" transform="translate(-2 -3.04)" style="fill:#ff8e72"/><path d="M168.3,70.17a.9.9,0,1,1-.89-.9A.89.89,0,0,1,168.3,70.17Z" transform="translate(-2 -3.04)" style="fill:#ff8e72"/><rect x="160" y="98.96" width="22" height="1" style="fill:#ff8e72"/><path d="M185.38,102.92a1.53,1.53,0,1,1-1.53-1.53A1.53,1.53,0,0,1,185.38,102.92Z" transform="translate(-2 -3.04)" style="fill:#ff8e72"/><rect x="528" y="173.96" width="16" height="8" rx="3.88" ry="3.88" style="fill:#545969"/><path d="M499,180.44v1.12a4.21,4.21,0,0,0,4,4.44h9a3.86,3.86,0,0,0,2.95-1.42,4.74,4.74,0,0,0,1.09-3v-1.12a4.74,4.74,0,0,0-.58-2.26A4,4,0,0,0,512,176h-9A4.21,4.21,0,0,0,499,180.44Z" transform="translate(-2 -3.04)" style="fill:#fc6161"/><polygon points="507.96 178.63 512.89 181.54 517.02 183.96 534 193.96 534 161.96 518.38 171.96 513.41 175.14 509 177.96 507.96 178.63" style="fill:#fab520"/><rect x="503" y="171.96" width="21" height="12" style="fill:#fab520"/><rect x="534" y="158.96" width="2" height="38" style="fill:#29295f"/><rect x="506" y="183.96" width="6" height="16" style="fill:#545969"/><path d="M499,180.44V181h47v-.12a3.91,3.91,0,0,0-3.92-3.88H538V162h-2v3l-15.64,10H505v1h-2A4.21,4.21,0,0,0,499,180.44Z" transform="translate(-2 -3.04)" style="fill:#fff;opacity:0.28"/><rect x="507" y="173.96" width="6" height="1" style="fill:#29295f"/><rect x="499" y="69.96" width="4" height="28" style="fill:#00fb82"/><rect x="492" y="74.96" width="4" height="23" style="fill:#54deff"/><rect x="485" y="80.96" width="4" height="17" style="fill:#fab520"/><rect x="478" y="85.96" width="4" height="12" style="fill:#fc6161"/><rect x="471" y="60.96" width="4" height="37" style="fill:#29295f"/><polygon points="500.59 62.73 494.46 64.71 496.57 65.47 477.78 81.33 478.43 82.09 497.21 66.23 497.6 68.44 500.59 62.73" style="fill:#29295f"/><path d="M173,203v-8.37a5.73,5.73,0,0,0-5.6-5.63H148.31a5.48,5.48,0,0,0-5.31,5.63V203Z" transform="translate(-2 -3.04)" style="fill:#54deff"/><path d="M162,194a4,4,0,0,1-4,4h0a4,4,0,0,1-4-4V184a4,4,0,0,1,4-4h0a4,4,0,0,1,4,4Z" transform="translate(-2 -3.04)" style="fill:#ffdd9a"/><path d="M168,181c0,3-3.16,5-6.32,5h-7.14c-3.16,0-6.54-2-6.54-5V168.72c0-3,3.38-5.72,6.54-5.72h7.14c3.16,0,6.32,2.7,6.32,5.72Z" transform="translate(-2 -3.04)" style="fill:#ffdd9a"/><path d="M148.31,172.07l1.36.06s-.68-2.9,0-3.41c1.52-1.15,2.39.68,7.62-.34,0,0,5.81-1.29,8.18.56.44.35.11,2.28.11,2.28l1.59-.23s2.39-2.61,2.16-5.23c0,0-2-9.66-16.36-5.45,0,0-7.73.68-6,7.95A15,15,0,0,0,148.31,172.07Z" transform="translate(-2 -3.04)" style="fill:#3d4559"/><rect x="144" y="166.96" width="4" height="5" rx="1.88" ry="1.88" style="fill:#ffdd9a"/><rect x="164" y="166.96" width="4" height="5" rx="1.88" ry="1.88" style="fill:#ffdd9a"/><path d="M593.19,104a16.34,16.34,0,1,1-16.34-16.33A16.33,16.33,0,0,1,593.19,104Z" transform="translate(-2 -3.04)" style="fill:#2f374f"/><path d="M576.85,117.33A13.33,13.33,0,1,1,590.19,104,13.35,13.35,0,0,1,576.85,117.33Z" transform="translate(-2 -3.04)" style="fill:#54deff"/><rect x="573" y="115.96" width="4" height="6" style="fill:#2f374f"/><rect x="571" y="119.96" width="8" height="2" style="fill:#2f374f"/><rect x="573" y="121.96" width="4" height="16" style="fill:#2f374f"/><rect x="573" y="137.96" width="4" height="2" style="fill:#54deff"/><rect x="573" y="121.96" width="4" height="2" style="fill:#54deff"/><circle cx="568.35" cy="96.46" r="1.5" style="fill:#bbf2ff"/><path d="M258.93,73H242V60h22.62ZM243,72h15.28l4.81-11H243Z" transform="translate(-2 -3.04)" style="fill:#29295f"/><rect x="240" y="49.96" width="1" height="7" style="fill:#29295f"/><rect x="236" y="49.96" width="4" height="1" style="fill:#29295f"/><rect x="244" y="60.96" width="12" height="1" style="fill:#29295f"/><rect x="244" y="63.96" width="9" height="1" style="fill:#29295f"/><path d="M246.85,74.67a1.33,1.33,0,1,1-1.33-1.34A1.33,1.33,0,0,1,246.85,74.67Z" transform="translate(-2 -3.04)" style="fill:#29295f"/><path d="M255.85,74.67a1.33,1.33,0,1,1-1.33-1.34A1.33,1.33,0,0,1,255.85,74.67Z" transform="translate(-2 -3.04)" style="fill:#29295f"/><path d="M104,182H79v-5h25Zm-24-1h23v-3H80Z" transform="translate(-2 -3.04)" style="fill:#29295f"/><path d="M104,202H79V181h25Zm-24-1h23V182H80Z" transform="translate(-2 -3.04)" style="fill:#29295f"/><rect x="81" y="181.96" width="10" height="2" style="fill:#29295f"/><rect x="81" y="185.96" width="18" height="2" style="fill:#29295f"/><rect x="81" y="189.96" width="13" height="2" style="fill:#29295f"/><path d="M573.19,258.5A13.84,13.84,0,1,1,587,244.67,13.85,13.85,0,0,1,573.19,258.5Zm0-26.67A12.84,12.84,0,1,0,586,244.67,12.85,12.85,0,0,0,573.19,231.83Z" transform="translate(-2 -3.04)" style="fill:#29295f"/><rect x="557.51" y="244.33" width="24.35" height="1" transform="translate(299.72 800.97) rotate(-87.65)" style="fill:#29295f"/><rect x="578.02" y="232.26" width="1" height="23.48" transform="translate(-25.96 64.21) rotate(-6.52)" style="fill:#29295f"/><rect x="559" y="236.96" width="25" height="1" style="fill:#29295f"/><rect x="572.19" y="236.83" width="1" height="24.34" transform="translate(306.06 811.6) rotate(-88.43)" style="fill:#29295f"/><path d="M655.19,106h0a11.42,11.42,0,0,0-9.31-5.58,10.53,10.53,0,0,0-9.87,7,6.84,6.84,0,0,0-8.63,6.67c0,3.54,2.75,5.92,6.84,5.92h21a7,7,0,0,0,0-14Zm0,13h-21c-2.69,0-5.84-1.29-5.84-4.92a5.88,5.88,0,0,1,5.84-5.91,5.66,5.66,0,0,1,1.94.34l.49.17.16-.5a9.49,9.49,0,0,1,17.63-1.28l.15.3.44,0h.19a5.92,5.92,0,0,1,0,11.83Z" transform="translate(-2 -3.04)" style="fill:#29295f"/><rect x="638" y="106.96" width="14" height="1" style="fill:#29295f"/><rect x="632" y="110.96" width="22" height="1" style="fill:#29295f"/><rect x="96" y="45.96" width="23" height="16" style="fill:#fc6161"/><polygon points="119 61.96 108.02 61.96 96 61.96 96 53.96 96 45.96 107.5 54.96 119 45.96 119 53.96 119 61.96" style="fill:#29295f"/><path d="M168.84,240.83c0,5.53-10,20-10,20s-10-14.47-10-20a10,10,0,0,1,20,0Z" transform="translate(-2 -3.04)" style="fill:#29295f"/><circle cx="156.84" cy="237.79" r="4" style="fill:#ff6161"/><path d="M570.79,56.56A15.56,15.56,0,1,1,586.35,41,15.59,15.59,0,0,1,570.79,56.56Zm0-30A14.44,14.44,0,1,0,585.22,41,14.46,14.46,0,0,0,570.79,26.56Z" transform="translate(-2 -3.04)" style="fill:#29295f"/><polygon points="566 43.29 566 32.63 575.24 37.96 566 43.29" style="fill:#29295f"/><rect x="189" y="17.96" width="2" height="17" style="fill:#29295f"/><rect x="185" y="21.96" width="2" height="13" style="fill:#29295f"/><rect x="181" y="23.96" width="2" height="11" style="fill:#29295f"/><rect x="177" y="26.96" width="2" height="8" style="fill:#29295f"/><rect x="173" y="28.96" width="2" height="6" style="fill:#29295f"/><rect x="169" y="30.96" width="2" height="4" style="fill:#29295f"/><polygon points="192.1 12.31 187.84 12.87 188.96 13.52 167.27 25.9 167.77 26.77 189.46 14.39 189.45 15.69 192.1 12.31" style="fill:#bcbcbc"/><path d="M37.3,120.75a8.62,8.62,0,1,0-17.23,0A8.09,8.09,0,0,0,26,128.93V134a3,3,0,0,0,6,0v-5.27A9,9,0,0,0,37.3,120.75ZM29,136a2,2,0,0,1-2-2v-1.81l4,.05V134A2,2,0,0,1,29,136Zm2-4.76-4-.05V129h4Zm.33-3.37.05.13H26.19a7.64,7.64,0,1,1,5.14-.12Z" transform="translate(-2 -3.04)" style="fill:#29295f"/><circle cx="22.23" cy="115.61" r="0.94" style="fill:#29295f"/><path d="M392.65,193.27a12,12,0,1,1-12-12A12,12,0,0,1,392.65,193.27Z" transform="translate(-2 -3.04)" style="fill:#fad733"/><path d="M380.65,181.27a12,12,0,1,0,12,12A12,12,0,0,0,380.65,181.27Zm0,23.07a11.08,11.08,0,1,1,11.08-11.07A11.09,11.09,0,0,1,380.65,204.34Z" transform="translate(-2 -3.04)" style="fill:#fca900"/><path d="M380.65,202.5a9.23,9.23,0,1,1,9.23-9.23A9.24,9.24,0,0,1,380.65,202.5Z" transform="translate(-2 -3.04)" style="fill:#fca900"/><path d="M355.4,231a12,12,0,1,1-12-12A12,12,0,0,1,355.4,231Z" transform="translate(-2 -3.04)" style="fill:#fad733"/><path d="M343.4,219a12,12,0,1,0,12,12A12,12,0,0,0,343.4,219Zm0,23.07A11.08,11.08,0,1,1,354.48,231,11.09,11.09,0,0,1,343.4,242.09Z" transform="translate(-2 -3.04)" style="fill:#fca900"/><path d="M343.4,240.25a9.24,9.24,0,1,1,9.23-9.23A9.24,9.24,0,0,1,343.4,240.25Z" transform="translate(-2 -3.04)" style="fill:#fca900"/><polygon points="140 101.96 136 101.96 136 97.96 135 97.96 135 101.96 131 101.96 131 102.96 135 102.96 135 106.96 136 106.96 136 102.96 140 102.96 140 101.96" style="fill:#29295f"/><polygon points="479 139.96 475 139.96 475 135.96 474 135.96 474 139.96 470 139.96 470 140.96 474 140.96 474 144.96 475 144.96 475 140.96 479 140.96 479 139.96" style="fill:#29295f"/><polygon points="656 156.96 652 156.96 652 152.96 651 152.96 651 156.96 647 156.96 647 157.96 651 157.96 651 161.96 652 161.96 652 157.96 656 157.96 656 156.96" style="fill:#29295f"/><polygon points="589 173.96 585 173.96 585 169.96 584 169.96 584 173.96 580 173.96 580 174.96 584 174.96 584 178.96 585 178.96 585 174.96 589 174.96 589 173.96" style="fill:#29295f"/><polygon points="450 47.96 446 47.96 446 43.96 445 43.96 445 47.96 441 47.96 441 48.96 445 48.96 445 52.96 446 52.96 446 48.96 450 48.96 450 47.96" style="fill:#29295f"/><polygon points="227 39.96 223 39.96 223 35.96 222 35.96 222 39.96 218 39.96 218 40.96 222 40.96 222 44.96 223 44.96 223 40.96 227 40.96 227 39.96" style="fill:#29295f"/><polygon points="68 221.96 64 221.96 64 217.96 63 217.96 63 221.96 59 221.96 59 222.96 63 222.96 63 226.96 64 226.96 64 222.96 68 222.96 68 221.96" style="fill:#29295f"/><polygon points="297 94.96 293 94.96 293 90.96 292 90.96 292 94.96 288 94.96 288 95.96 292 95.96 292 99.96 293 99.96 293 95.96 297 95.96 297 94.96" style="fill:#29295f"/><polygon points="615 24.96 611 24.96 611 20.96 610 20.96 610 24.96 606 24.96 606 25.96 610 25.96 610 29.96 611 29.96 611 25.96 615 25.96 615 24.96" style="fill:#29295f"/><polygon points="509 12.96 505 12.96 505 8.96 504 8.96 504 12.96 500 12.96 500 13.96 504 13.96 504 17.96 505 17.96 505 13.96 509 13.96 509 12.96" style="fill:#29295f"/><polygon points="147 31.96 143 31.96 143 27.96 142 27.96 142 31.96 138 31.96 138 32.96 142 32.96 142 36.96 143 36.96 143 32.96 147 32.96 147 31.96" style="fill:#29295f"/><polygon points="9 106.96 5 106.96 5 102.96 4 102.96 4 106.96 0 106.96 0 107.96 4 107.96 4 111.96 5 111.96 5 107.96 9 107.96 9 106.96" style="fill:#29295f"/><rect x="31" y="63.96" width="28" height="1" style="fill:#29295f"/><rect x="31" y="72.96" width="28" height="1" style="fill:#29295f"/><rect x="31" y="66.96" width="21" height="1" style="fill:#29295f"/><rect x="31" y="69.96" width="13" height="1" style="fill:#29295f"/><rect x="608" y="52.96" width="28" height="1" style="fill:#29295f"/><rect x="608" y="61.96" width="28" height="1" style="fill:#29295f"/><rect x="608" y="55.96" width="21" height="1" style="fill:#29295f"/><rect x="608" y="58.96" width="13" height="1" style="fill:#29295f"/><rect x="614" y="203.96" width="28" height="1" style="fill:#29295f"/><rect x="614" y="212.96" width="28" height="1" style="fill:#29295f"/><rect x="614" y="206.96" width="21" height="1" style="fill:#29295f"/><rect x="614" y="209.96" width="13" height="1" style="fill:#29295f"/><rect x="306" y="26.96" width="28" height="1" style="fill:#29295f"/><rect x="306" y="35.96" width="28" height="1" style="fill:#29295f"/><rect x="306" y="29.96" width="21" height="1" style="fill:#29295f"/><rect x="306" y="32.96" width="13" height="1" style="fill:#29295f"/><rect x="21" y="185.96" width="28" height="1" style="fill:#29295f"/><rect x="21" y="194.96" width="28" height="1" style="fill:#29295f"/><rect x="21" y="188.96" width="21" height="1" style="fill:#29295f"/><rect x="21" y="191.96" width="13" height="1" style="fill:#29295f"/><path d="M244,145.36v1.31h3.13a2.84,2.84,0,0,1-.72,1.65,3.21,3.21,0,0,1-2.41,1,3.48,3.48,0,0,1,0-7,3.3,3.3,0,0,1,2.35.94l.92-.92A4.48,4.48,0,0,0,244,141a4.79,4.79,0,1,0,0,9.58,4.4,4.4,0,0,0,3.34-1.34,4.35,4.35,0,0,0,1.13-3.06,4,4,0,0,0-.07-.82Z" transform="translate(-2 -3.04)" style="fill:#4285f4"/><path d="M252.35,144.29a3.1,3.1,0,1,0,3.1,3.09A3,3,0,0,0,252.35,144.29Zm0,5a1.88,1.88,0,1,1,1.75-1.88A1.79,1.79,0,0,1,252.35,149.26Z" transform="translate(-2 -3.04)" style="fill:#ea4335"/><path d="M267.56,145h-.05a2.15,2.15,0,0,0-1.63-.69,3.1,3.1,0,0,0,0,6.19,2.09,2.09,0,0,0,1.63-.71h.05v.43a1.59,1.59,0,0,1-1.65,1.82,1.72,1.72,0,0,1-1.56-1.1l-1.18.49a2.94,2.94,0,0,0,2.74,1.82c1.59,0,2.93-.94,2.93-3.22v-5.56h-1.28ZM266,149.26a1.89,1.89,0,1,1,1.65-1.87A1.73,1.73,0,0,1,266,149.26Z" transform="translate(-2 -3.04)" style="fill:#4285f4"/><path d="M259.27,144.29a3.1,3.1,0,1,0,3.1,3.09A3,3,0,0,0,259.27,144.29Zm0,5a1.88,1.88,0,1,1,1.74-1.88A1.79,1.79,0,0,1,259.27,149.26Z" transform="translate(-2 -3.04)" style="fill:#fbbc05"/><path d="M269.91,141.13h1.33v9.35h-1.33Z" transform="translate(-2 -3.04)" style="fill:#34a853"/><path d="M275.37,149.26a1.57,1.57,0,0,1-1.5-.94l4.13-1.71-.14-.35a2.86,2.86,0,0,0-2.64-2,2.94,2.94,0,0,0-2.92,3.09,3,3,0,0,0,3.07,3.1,3.08,3.08,0,0,0,2.57-1.37l-1.05-.7a1.77,1.77,0,0,1-1.52.85Zm-.1-3.81a1.21,1.21,0,0,1,1.17.68l-2.79,1.16A1.68,1.68,0,0,1,275.27,145.45Z" transform="translate(-2 -3.04)" style="fill:#ea4335"/><path d="M339.24,235.91a6,6,0,0,0,1.49-1.43,2.83,2.83,0,0,0,.57-1.7,2.19,2.19,0,0,0-.11-.61c0-.15-.12-.35-.22-.61h-1.81v-.85h1.28a3.28,3.28,0,0,1-.27-.51c-.18-.37-.31-.64-.37-.81a3.32,3.32,0,0,1-.13-.56,3.55,3.55,0,0,1-.06-.67,3.09,3.09,0,0,1,1-2.29,4.08,4.08,0,0,1,3-1,3.65,3.65,0,0,1,2.77,1,4,4,0,0,1,1,2.83h-1.51a2.76,2.76,0,0,0-.58-1.88,2.25,2.25,0,0,0-1.76-.64,2.36,2.36,0,0,0-1.74.6,2,2,0,0,0-.59,1.46,2.18,2.18,0,0,0,.19.88c.12.3.38.84.78,1.61h2.69v.85h-2.32l.12.59a3.15,3.15,0,0,1,0,.44,3,3,0,0,1-.49,1.62,6,6,0,0,1-1.54,1.59,8,8,0,0,1,1.12-.46,3.65,3.65,0,0,1,1.07-.16,5.55,5.55,0,0,1,1.56.29,6.07,6.07,0,0,0,1.28.29,1.63,1.63,0,0,0,.7-.15,3.72,3.72,0,0,0,.6-.38l.68,1.11a4.68,4.68,0,0,1-.82.55,2.92,2.92,0,0,1-1.27.29,6.32,6.32,0,0,1-1.65-.38,6.51,6.51,0,0,0-1.83-.38,3.1,3.1,0,0,0-1.18.22,5,5,0,0,0-.85.44Z" transform="translate(-2 -3.04)" style="fill:#ffdf5a"/><path d="M376.49,198.17a6.22,6.22,0,0,0,1.49-1.44,2.81,2.81,0,0,0,.57-1.7,2.19,2.19,0,0,0-.11-.61c0-.15-.12-.35-.22-.61h-1.81V193h1.28a2.68,2.68,0,0,1-.27-.51c-.18-.37-.31-.64-.37-.81a3.56,3.56,0,0,1-.19-1.23,3.09,3.09,0,0,1,1-2.29,4.08,4.08,0,0,1,3-1,3.61,3.61,0,0,1,2.77,1,4,4,0,0,1,1,2.82H383.1a2.76,2.76,0,0,0-.58-1.88,2.25,2.25,0,0,0-1.76-.64,2.33,2.33,0,0,0-1.74.6,2,2,0,0,0-.59,1.46,2.18,2.18,0,0,0,.19.88c.12.3.38.84.78,1.61h2.69v.85h-2.32l.12.59a3.15,3.15,0,0,1,0,.44,3,3,0,0,1-.49,1.62,5.85,5.85,0,0,1-1.54,1.59,6.9,6.9,0,0,1,1.12-.45,3.37,3.37,0,0,1,1.07-.17,5.55,5.55,0,0,1,1.56.29,6.07,6.07,0,0,0,1.28.29,1.63,1.63,0,0,0,.7-.15,3.72,3.72,0,0,0,.6-.38l.68,1.11a4.68,4.68,0,0,1-.82.55,2.92,2.92,0,0,1-1.27.29,6.32,6.32,0,0,1-1.65-.38,6.49,6.49,0,0,0-1.84-.38,3.17,3.17,0,0,0-1.18.22,5.37,5.37,0,0,0-.84.44Z" transform="translate(-2 -3.04)" style="fill:#ffdf5a"/></svg>